<svg xmlns="http://www.w3.org/2000/svg" width="500" height="375" viewBox="0 0 500 375" fill="none" clip-path="url(#ClipPath-1)"><style>
@keyframes a0_do { 0% { stroke-dashoffset: 0px; animation-timing-function: cubic-bezier(.4,0,.6,1); } 100% { stroke-dashoffset: 200px; } }
@keyframes a1_do { 0% { stroke-dashoffset: 0px; animation-timing-function: cubic-bezier(.4,0,.6,1); } 100% { stroke-dashoffset: 200px; } }
@keyframes a2_do { 0% { stroke-dashoffset: 0px; animation-timing-function: cubic-bezier(.4,0,.6,1); } 100% { stroke-dashoffset: 200px; } }
</style><g filter="url(#filter0_d)" mask="url(#Mask-1)"><rect x="75" y="48" width="350" height="758.2" rx="37.3" fill="#000"/><rect x="73.5" y="46.5" width="353" height="761.2" rx="38.8" stroke="#fff" stroke-width="3"/><path d="M188.2 324.7v-12.2h4.2v-2.5h-11.6v2.5h4.3v12.2h3.1Zm16.5-5.4h2.4l2.8 5.4h3.5l-3.1-5.8c1.7-0.7 2.6-2.3 2.6-4.2c0-2.9-1.9-4.7-5.3-4.7h-6v14.7h3.1v-5.4Zm0-6.9h2.6c1.5 0 2.5 .9 2.5 2.4c0 1.4-0.9 2.3-2.5 2.3h-2.6v-4.7Zm20.8 12.3v-14.7h-3.1v14.7h3.1Zm9.4-4.2c.1 2.8 2.4 4.5 5.9 4.5c3.7 0 5.9-1.8 5.9-4.7c0-2.3-1.3-3.5-4.4-4.1l-1.6-0.3c-1.7-0.4-2.4-1-2.4-1.9c0-1 1-1.8 2.5-1.8c1.6 0 2.7 .8 2.8 2.1h2.9c-0.1-2.8-2.3-4.5-5.7-4.5c-3.3 0-5.6 1.7-5.6 4.4c0 2.2 1.4 3.6 4.4 4.2l1.5 .3c1.9 .4 2.6 .9 2.6 1.9c0 1.1-1.2 1.9-2.8 1.9c-1.7 0-2.9-0.7-3.1-2h-2.9Zm24.3 4.2v-4.5l1.4-1.6l4.3 6.1h3.7l-5.8-8.2l5.4-6.5h-3.4l-5.5 6.7h-0.1v-6.7h-3.1v14.7h3.1Zm27.9-2.5h-6.6v-3.7h6.3v-2.4h-6.3v-3.6h6.6v-2.5h-9.7v14.7h9.7v-2.5Zm19.2 0h-6.4v-12.2h-3.1v14.7h9.5v-2.5Zm19.1 0h-6.7v-3.7h6.3v-2.4h-6.3v-3.6h6.7v-2.5h-9.8v14.7h9.8v-2.5Z" fill="#8153d1"/><path d="M294.8 212.7c2.7 0 4.9-2.1 4.9-4.8c0-2.7-2.2-4.8-4.9-4.8c-2.8 0-4.9 2.1-4.9 4.8c0 2.7 2.2 4.8 4.9 4.8Zm0-1c-2.1 0-3.8-1.7-3.8-3.8c0-2.1 1.7-3.7 3.8-3.7c2.1 0 3.8 1.6 3.8 3.7c0 2.1-1.7 3.8-3.8 3.8Zm-0.9-1.6v-1.7h.8l1.1 1.7h1.2l-1.3-1.8c.7-0.1 1.1-0.6 1.1-1.4c0-0.8-0.7-1.4-1.6-1.4h-2.3v4.6h1Zm0-3.7h1.1c.5 0 .8 .2 .8 .6c0 .4-0.3 .7-0.8 .7h-1.1v-1.3Z" fill="#8153d1"/><path d="M266.6 227.9c0 0-0.3 .4-0.3 .4c0 0-0.1 .5-0.1 .6c0 .1 .1 .5 .1 .6c.1 .1 .3 .4 .5 .6c.1 .1 .5 .3 .7 .4c.2 0 .7 .1 1 .1c.2 0 .7-0.1 1-0.2c.3-0.2 .7-0.4 1-0.6c.3-0.3 .7-0.6 .9-1c.2-0.4 .5-0.8 .6-1.3c.1-0.5 .3-1.1 .2-1.6c0-0.5 0-1.1-0.2-1.7c-0.2-0.5-0.5-1.1-0.8-1.6c-0.3-0.6-0.8-1.1-1.3-1.5c-0.5-0.5-1.1-0.9-1.8-1.2c-0.6-0.3-1.4-0.5-2.1-0.6c-0.8-0.1-1.6-0.2-2.4-0.1c-0.8 .1-1.6 .3-2.4 .7c-0.8 .3-1.6 .7-2.3 1.3c-0.7 .5-1.4 1.3-2 2c-0.6 .8-1.1 1.7-1.4 2.6c-0.4 .9-0.6 1.9-0.7 3c-0.1 1-0.1 2.1 .1 3.2c.2 1.1 .6 2.2 1 3.2c.5 1 1.2 2 1.9 2.9c.8 .9 1.7 1.8 2.8 2.4c1 .7 2.1 1.3 3.3 1.7c1.3 .4 2.6 .7 3.9 .8c1.3 .1 2.7 0 4-0.3c1.4-0.3 2.7-0.8 4-1.4c1.3-0.7 2.5-1.5 3.6-2.5c1-1 2-2.1 2.8-3.4c.8-1.3 1.5-2.7 2-4.2c.4-1.5 .7-3.1 .8-4.7c0-1.6-0.1-3.2-0.5-4.9c-0.4-1.6-1-3.2-1.8-4.7c-0.8-1.5-1.8-2.9-3-4.2c-1.2-1.2-2.6-2.4-4.1-3.3c-1.6-0.9-3.3-1.7-5-2.2c-1.8-0.5-3.7-0.8-5.6-0.9c-1.8 0-3.8 .2-5.7 .7c-1.8 .4-3.7 1.2-5.4 2.1c-1.7 1-3.4 2.2-4.8 3.6c-1.5 1.5-2.8 3.1-3.9 4.9c-1 1.8-1.9 3.7-2.4 5.8c-0.6 2-0.9 4.2-0.9 6.3c0 2.2 .2 4.4 .8 6.6" stroke="#8153d1" stroke-width="6" stroke-miterlimit="10" stroke-linecap="round" stroke-linejoin="round" stroke-dasharray="200" style="animation: 1.5s linear infinite both a0_do;"/><path d="M263.6 268.3c0 0-0.2-0.5-0.2-0.5c0-0.1-0.3-0.4-0.4-0.4c-0.1-0.1-0.5-0.2-0.6-0.2c-0.2 0-0.6 .1-0.7 .1c-0.2 .1-0.6 .3-0.7 .5c-0.2 .1-0.5 .5-0.6 .7c-0.2 .3-0.3 .7-0.4 1c0 .3 0 .8 0 1.2c.1 .4 .2 .9 .4 1.3c.2 .3 .5 .8 .9 1.1c.3 .4 .8 .8 1.2 1c.5 .3 1.1 .5 1.6 .6c.6 .2 1.2 .2 1.9 .2c.6 0 1.3-0.2 1.9-0.4c.6-0.2 1.3-0.5 1.9-0.9c.5-0.5 1.1-1 1.6-1.6c.5-0.6 .9-1.3 1.2-2c.4-0.8 .6-1.6 .7-2.5c.1-0.8 .1-1.7 0-2.6c-0.1-0.9-0.4-1.9-0.8-2.7c-0.3-0.9-0.9-1.8-1.5-2.5c-0.6-0.8-1.4-1.5-2.2-2.1c-0.9-0.6-1.8-1.2-2.9-1.5c-1-0.4-2.1-0.7-3.2-0.8c-1.2 0-2.4 0-3.5 .2c-1.2 .3-2.4 .6-3.5 1.2c-1.1 .5-2.2 1.2-3.1 2c-1 .9-1.9 1.9-2.6 3c-0.7 1.1-1.4 2.3-1.8 3.6c-0.4 1.3-0.7 2.8-0.8 4.2c0 1.4 .1 2.9 .4 4.3c.3 1.4 .8 2.9 1.5 4.2c.7 1.3 1.6 2.6 2.7 3.8c1 1.1 2.3 2.2 3.6 3c1.4 .9 2.9 1.6 4.5 2c1.6 .5 3.3 .8 4.9 .9c1.7 0 3.5-0.2 5.2-0.6c1.7-0.4 3.4-1 4.9-1.9c1.6-0.8 3.1-1.9 4.5-3.2c1.3-1.3 2.5-2.7 3.5-4.4c.9-1.6 1.7-3.4 2.3-5.2c.5-1.9 .8-3.9 .8-5.8c0-2-0.2-4.1-0.7-6c-0.5-2-1.3-3.9-2.3-5.7c-1-1.8-2.3-3.6-3.8-5.1c-1.4-1.5-3.2-2.8-5-3.9c-1.9-1.1-3.9-2-6.1-2.6c-0.7-0.2-1.9-0.5-2.6-0.6" stroke="#8153d1" stroke-width="6" stroke-miterlimit="10" stroke-linecap="round" stroke-linejoin="round" stroke-dasharray="200" style="animation: 1.5s linear infinite both a1_do;"/><path d="M230.1 245.5c0 0 .5 .1 .6 .1c0 0 .4-0.2 .5-0.2c.1-0.1 .4-0.4 .5-0.5c0-0.1 .2-0.5 .2-0.7c0-0.1 0-0.6 0-0.8c-0.1-0.2-0.2-0.6-0.4-0.9c-0.1-0.2-0.4-0.5-0.7-0.7c-0.2-0.2-0.7-0.5-1-0.6c-0.4-0.2-0.9-0.3-1.3-0.3c-0.4 0-1 0-1.4 .1c-0.5 .1-1 .3-1.5 .6c-0.4 .3-0.9 .7-1.3 1.1c-0.4 .4-0.8 .9-1.1 1.5c-0.3 .5-0.5 1.2-0.6 1.8c-0.1 .7-0.2 1.4-0.1 2.2c0 .7 .2 1.4 .5 2.1c.2 .8 .6 1.5 1.1 2.1c.5 .7 1.1 1.3 1.8 1.8c.7 .5 1.5 1 2.3 1.3c.8 .4 1.8 .6 2.7 .7c.9 .1 2 .1 2.9 0c1-0.2 2.1-0.5 3-0.9c.9-0.4 1.9-1 2.7-1.7c.8-0.7 1.6-1.6 2.3-2.5c.6-0.9 1.2-2 1.6-3.1c.4-1.1 .6-2.4 .7-3.6c.1-1.2 0-2.5-0.2-3.8c-0.3-1.2-0.7-2.5-1.3-3.6c-0.6-1.2-1.4-2.4-2.3-3.4c-0.9-1-2-2-3.2-2.7c-1.2-0.8-2.5-1.4-3.9-1.9c-1.4-0.4-2.9-0.7-4.4-0.7c-1.5-0.1-3.1 0-4.6 .4c-1.5 .3-3 .9-4.4 1.6c-1.4 .8-2.8 1.7-4 2.9c-1.2 1.1-2.3 2.4-3.2 3.9c-0.9 1.4-1.6 3-2.1 4.7c-0.5 1.7-0.8 3.5-0.8 5.2c-0.1 1.8 .1 3.7 .5 5.5c.5 1.8 1.2 3.5 2.1 5.2c.9 1.6 2 3.2 3.4 4.6c1.3 1.4 2.9 2.6 4.6 3.7c1.7 1 3.6 1.8 5.5 2.3c2 .6 4 .9 6.1 .9c2.1 0 4.2-0.2 6.3-0.7c2-0.6 4-1.4 5.9-2.5c1.9-1 3.7-2.4 5.3-3.9c.5-0.6 1.3-1.3 1.9-2" stroke="#8153d1" stroke-width="6" stroke-miterlimit="10" stroke-linecap="round" stroke-linejoin="round" stroke-dasharray="200" style="animation: 1.5s linear infinite both a2_do;"/><rect x="389.3" y="64.6" opacity=".35" width="19.8" height="9.8" rx="1.6" stroke="#fff" stroke-width=".7"/><path opacity=".4" d="M410.4 67.6v3.7c.7-0.3 1.2-1 1.2-1.8c0-0.8-0.5-1.6-1.2-1.9" fill="#fff"/><rect x="390.8" y="66" width="16.8" height="6.8" rx="1" fill="#fff"/><path fill-rule="evenodd" clip-rule="evenodd" d="M377.1 66.3c2.1 0 4.1 .8 5.6 2.2c.1 .1 .3 .1 .4 0l1.1-1.1c0 0 0-0.1 0-0.2c0-0.1 0-0.1 0-0.2c-4-3.8-10.2-3.8-14.2 0c0 .1-0.1 .1-0.1 .2c0 .1 .1 .2 .1 .2l1.1 1.1c.1 .1 .3 .1 .4 0c1.5-1.4 3.5-2.2 5.6-2.2Zm0 3.6c1.1 0 2.2 .4 3.1 1.1c.1 .2 .3 .2 .4 0l1.1-1c0-0.1 .1-0.2 .1-0.3c0 0-0.1-0.1-0.1-0.2c-2.6-2.4-6.6-2.4-9.2 0c0 .1-0.1 .2-0.1 .2c0 .1 .1 .2 .1 .3l1.1 1c.1 .2 .3 .2 .4 0c.8-0.7 1.9-1.1 3.1-1.1Zm2.2 2.4c0 0-0.1 .1-0.1 .2l-1.9 1.9c-0.1 0-0.1 0-0.2 0c-0.1 0-0.2 0-0.2 0l-1.9-1.9c0-0.1-0.1-0.2-0.1-0.2c0-0.1 .1-0.2 .1-0.3c1.2-1 3-1 4.2 0c0 .1 .1 .2 .1 .3Z" fill="#fff"/><path fill-rule="evenodd" clip-rule="evenodd" d="M364.3 64.5h-0.9c-0.5 0-0.9 .4-0.9 .9v8.1c0 .5 .4 .9 .9 .9h.9c.5 0 1-0.4 1-0.9v-8.1c0-0.5-0.5-0.9-1-0.9Zm-5.3 2.2h1c.5 0 .9 .4 .9 .9v5.9c0 .5-0.4 .9-0.9 .9h-1c-0.5 0-0.9-0.4-0.9-0.9v-5.9c0-0.5 .4-0.9 .9-0.9Zm-3.4 2.1h-0.9c-0.5 0-0.9 .5-0.9 1v3.7c0 .5 .4 .9 .9 .9h.9c.5 0 1-0.4 1-0.9v-3.7c0-0.5-0.5-1-1-1Zm-4.3 1.9h-1c-0.5 0-0.9 .4-0.9 .9v1.9c0 .5 .4 .9 .9 .9h1c.5 0 .9-0.4 .9-0.9v-1.9c0-0.5-0.4-0.9-0.9-0.9Z" fill="#fff"/><path d="M111.7 71.2h1.4v-1.5h1.1v-1.1h-1.1v-5.2h-2c-1.1 1.6-2.2 3.4-3.2 5.2v1.1h3.8v1.5Zm-2.5-2.7c.8-1.3 1.7-2.8 2.5-4h.1v4.1h-2.6v-0.1Zm7.2-2.4c.5 0 .9-0.3 .9-0.8c0-0.5-0.4-0.8-0.9-0.8c-0.5 0-0.9 .3-0.9 .8c0 .5 .4 .8 .9 .8Zm0 4.1c.5 0 .9-0.4 .9-0.9c0-0.5-0.4-0.8-0.9-0.8c-0.5 0-0.9 .3-0.9 .8c0 .5 .4 .9 .9 .9Zm2.4-4.5h1.3c0-0.8 .6-1.4 1.4-1.4c.9 0 1.4 .5 1.4 1.3c0 .6-0.3 .9-1.3 1.9l-2.7 2.8v.9h5.5v-1.1h-3.6v-0.1l1.7-1.7c1.4-1.3 1.8-1.9 1.8-2.9c0-1.3-1.1-2.2-2.7-2.2c-1.6 0-2.8 1-2.8 2.5Zm9.8 5.7c1.9 0 3-1.5 3-4.1c0-2.6-1.1-4.1-3-4.1c-1.9 0-3 1.5-3 4.1c0 2.6 1.1 4.1 3 4.1Zm0-1.1c-1 0-1.6-1-1.6-3c0-2 .6-3 1.6-3c1 0 1.6 1 1.6 3c0 2-0.6 3-1.6 3Z" fill="#fff"/></g><defs><filter id="filter0_d" x="52.015" y="12.4776" width="436" height="844.2" filterUnits="userSpaceOnUse" color-interpolation-filters="sRGB"><feFlood flood-opacity="0" result="BackgroundImageFix"/><feColorMatrix in="SourceAlpha" values="0 0 0 0 0 0 0 0 0 0 0 0 0 0 0 0 0 0 127 0"/><feOffset dx="20" dy="7.46269"/><feGaussianBlur stdDeviation="20"/><feColorMatrix values="0 0 0 0 0 0 0 0 0 0 0 0 0 0 0 0 0 0 0.45 0"/><feBlend in2="BackgroundImageFix" result="effect1_dropShadow"/><feBlend in="SourceGraphic" in2="effect1_dropShadow" result="shape"/></filter><mask id="Mask-1"><rect x="73.5" y="46.5" width="353" height="761.2" rx="38.8" fill="#f4f1f1" stroke="#fff" stroke-width="3"/></mask><clipPath id="ClipPath-1"><rect width="500" height="375" fill="#fff"/></clipPath></defs></svg>