<svg width="1599" height="1597" viewBox="0 0 1599 1597" fill="none" xmlns="http://www.w3.org/2000/svg">
<rect width="533" height="533" fill="#447CD2"/>
<rect y="1064" width="533" height="533" fill="#1E266F"/>
<rect x="533" width="533" height="533" fill="white"/>
<rect x="533" y="533" width="533" height="533" fill="#471050"/>
<rect x="533" y="1064" width="533" height="533" fill="#F6C354"/>
<path d="M846.825 183L857.389 224.737C857.389 226.724 855.628 228.491 853.647 228.491H806.99C805.229 228.491 803.909 229.595 803.909 231.583V249.028C803.909 250.574 804.789 251.678 806.77 251.678H828.778C830.319 251.678 831.859 253.224 831.859 254.549V288.999C831.859 290.765 830.319 292.09 828.338 292.09H806.77C805.229 292.09 803.909 294.078 803.909 295.844L795.105 374.018C836.481 368.719 867.512 337.802 880.497 296.065C894.363 251.899 883.799 207.071 846.825 183Z" fill="#2571A8"/>
<path d="M751.309 364.302C721.158 341.556 708.393 293.857 723.139 246.599C729.081 227.166 739.205 210.162 751.309 196.912C751.309 196.912 768.476 278.619 751.309 364.302Z" fill="#2571A8"/>
<g style="mix-blend-mode:multiply">
<path d="M860.469 183L871.033 224.737C871.033 226.724 869.273 228.491 867.292 228.491H820.634C818.874 228.491 817.553 229.595 817.553 231.583V249.028C817.553 250.574 818.434 251.678 820.414 251.678H842.423C843.963 251.678 845.504 253.224 845.504 254.549V288.999C845.504 290.765 843.963 292.09 841.982 292.09H820.414C818.874 292.09 817.553 294.078 817.553 295.844L808.75 374.018C850.125 368.719 881.157 337.802 894.142 296.065C908.007 251.899 897.443 207.071 860.469 183Z" fill="#E6161F"/>
<path d="M764.954 364.302C734.582 341.556 722.038 293.857 736.783 246.599C742.945 227.166 752.849 210.162 765.174 196.912C764.954 196.912 782.12 278.619 764.954 364.302Z" fill="#E6161F"/>
</g>
<rect x="1066" width="533" height="533" fill="#F3C77B"/>
<rect x="1066" y="1064" width="533" height="533" fill="#515151"/>
<rect y="533" width="533" height="533" fill="#9A9A9A"/>
<path d="M289.933 204.222C292.376 209.852 297.052 222.378 296.215 227.444C295.377 232.511 293.074 226.037 292.027 222.167C295.517 219 302.497 209.711 302.497 197.889C302.497 186.067 295.168 181 288.886 181C282.604 181 271.087 187.333 271.087 206.333C271.087 223.222 281.557 238 305.638 268.611C329.718 299.222 336 309.778 336 325.611C336 341.444 324.405 352 302.497 352C280.588 352 218.738 352 180 352C198.497 338.63 246.169 311.889 288.886 311.889C307.732 311.889 315.06 315.056 315.06 321.389C315.06 327.722 307.541 331.944 288.886 331.944C270.231 331.944 224.671 319.278 203.034 312.944C213.503 302.741 240.934 282.333 266.899 282.333C280.51 282.333 286.792 285.5 286.792 289.722C286.792 293.944 281.557 298.167 266.899 298.167C255.173 298.167 233.396 291.13 223.973 287.611" stroke="white" stroke-width="5" stroke-linecap="round" stroke-linejoin="round"/>
<path d="M263 1218C202.485 1218 153 1267.49 153 1328C153 1388.81 202.485 1438 263 1438C323.813 1438 373 1388.51 373 1328C373 1267.49 323.813 1218 263 1218ZM263 1427.27C208.447 1427.27 163.732 1382.85 163.732 1328C163.732 1273.15 208.447 1228.73 263 1228.73C317.851 1228.73 362.268 1273.15 362.268 1328C362.268 1382.85 317.851 1427.27 263 1427.27Z" fill="#4B8FF4"/>
<path d="M316.36 1342.61H295.195V1384.34H273.732V1273.75H316.658C330.967 1273.75 342.593 1280.3 348.555 1290.74C345.873 1284.18 341.401 1278.81 334.843 1274.94C318.149 1253.18 292.214 1238.87 263 1238.87C232.593 1238.87 205.764 1254.07 189.667 1277.32C187.878 1278.81 186.089 1280.3 184.599 1281.79C181.022 1285.37 178.637 1289.25 177.444 1294.31C179.233 1290.74 181.618 1287.76 184.599 1284.78C192.648 1276.43 202.485 1272.55 215.005 1272.55C221.862 1272.55 227.824 1273.45 232.891 1275.53C238.257 1277.62 241.536 1280.01 248.393 1286.56L233.786 1301.47C228.718 1296.7 226.929 1295.21 223.352 1293.42C220.967 1292.53 217.986 1291.93 214.707 1291.93C208.745 1291.93 203.976 1294.02 200.696 1297.89C198.312 1300.28 196.821 1303.85 196.523 1306.83C195.927 1311.6 195.331 1319.06 195.331 1328.89V1331.88C195.331 1349.17 196.523 1355.43 200.696 1359.9C203.976 1363.77 208.745 1365.56 214.409 1365.56C226.631 1365.56 234.084 1357.21 234.084 1344.4V1340.52H214.409V1322.63H255.547V1338.43C255.547 1355.13 252.864 1364.07 245.412 1372.42C237.661 1380.76 226.631 1385.24 214.707 1385.24C204.572 1385.24 195.331 1381.96 188.176 1376.29C203.976 1401.04 231.699 1417.43 263.298 1417.43C312.485 1417.43 352.431 1377.49 352.431 1328.3C352.431 1324.72 352.133 1321.14 351.835 1317.86C347.661 1332.77 334.246 1342.61 316.36 1342.61Z" fill="#4B8FF4"/>
<path d="M294.896 1292.82V1323.23H315.167C324.706 1323.23 331.264 1317.27 331.264 1308.03C331.264 1298.79 325.004 1292.82 315.167 1292.82H294.896V1292.82Z" fill="#4B8FF4"/>
<path d="M277.434 879.514C248.852 879.514 227.599 863.238 219.904 840.239H296.489L303.451 826.794H216.972H213.308H201.582C204.514 863.945 234.195 893.313 276.701 893.313C294.657 893.313 311.513 887.298 324.338 877.037V857.93C314.078 871.376 297.588 879.514 277.434 879.514Z" fill="black"/>
<path d="M207.81 790.35H224.666C234.193 773.367 252.881 762.044 277.432 762.044C297.22 762.044 313.709 770.182 324.336 782.92L331.298 770.182C317.74 756.737 298.319 748.245 277.066 748.245C242.987 748.245 218.436 765.582 207.81 790.35Z" fill="black"/>
<path d="M276.335 721C219.537 721 173.366 765.582 173.366 820.424L173 881.99L186.558 893.666V869.606C186.558 869.606 186.558 869.96 186.925 869.96V814.763H187.291H365.379H369.409H378.937C376.005 762.397 330.934 721 276.335 721ZM189.123 801.318C198.284 762.751 233.828 734.091 276.335 734.091C318.841 734.091 354.386 762.751 363.18 800.964H189.123V801.318Z" fill="black"/>
<path d="M704.385 1242.56C704.385 1242.56 729.52 1251.72 745.16 1251.72C760.8 1251.72 757.114 1236.08 787.611 1236.08C818.221 1236.08 823.806 1265.24 823.806 1265.24C823.806 1265.24 833.414 1238.54 837.882 1238.2C842.016 1237.87 849.947 1249.71 853.075 1255.74C853.857 1257.31 879.663 1256.53 879.663 1256.53C879.663 1256.53 885.807 1238.99 894.297 1236.08C894.297 1236.08 911.836 1247.7 911.054 1279.99C910.272 1312.27 894.409 1325.12 885.807 1329.59C877.205 1334.05 892.51 1348.13 898.207 1358.3C900.218 1361.87 896.867 1360.31 896.867 1360.31L865.699 1376.39C865.699 1376.39 867.598 1368.46 860.56 1364.33C853.634 1360.2 783.254 1363.21 769.625 1357.07C756.22 1351.03 754.097 1351.03 754.097 1351.03C754.097 1351.03 773.2 1337.74 769.737 1322.21C764.487 1298.64 742.926 1292.83 725.834 1283C708.853 1273.17 699.246 1256.64 704.385 1242.56Z" fill="#F6C354"/>
<path d="M792.862 1290.04C792.639 1318.75 806.491 1326.23 806.491 1326.23C806.491 1326.23 823.919 1312.27 823.919 1287.47C823.919 1275.96 823.919 1251.61 799.677 1239.66C773.871 1226.92 759.795 1251.5 743.82 1252.06C730.973 1252.62 706.285 1241.44 706.285 1241.44C706.285 1241.44 700.364 1256.75 708.295 1269.26C716.227 1281.77 765.381 1299.09 769.849 1326.23C772.307 1341.09 755.55 1350.7 755.55 1350.7" stroke="black" stroke-width="6" stroke-linecap="round" stroke-linejoin="round"/>
<path d="M806.49 1326.01C806.49 1326.01 817.885 1339.3 862.794 1337.74" stroke="black" stroke-width="6" stroke-linecap="round" stroke-linejoin="round"/>
<path d="M822.578 1270.49C822.578 1253.51 836.766 1239.43 836.766 1239.43C836.766 1239.43 853.411 1245.24 856.651 1257.08L878.323 1256.97C881.786 1242 896.867 1238.43 896.867 1238.43C896.867 1238.43 911.39 1250.94 912.507 1273.84C913.959 1302.77 901.671 1337.85 860.784 1337.85" stroke="black" stroke-width="6" stroke-linecap="round" stroke-linejoin="round"/>
<path d="M779.679 1259.32C779.679 1262.11 777.445 1264.35 774.652 1264.35C771.859 1264.35 769.625 1262.11 769.625 1259.32C769.625 1256.53 771.859 1254.29 774.652 1254.29C777.333 1254.29 779.679 1256.53 779.679 1259.32Z" fill="black"/>
<path d="M855.644 1285.01C855.644 1287.8 853.41 1290.04 850.617 1290.04C847.824 1290.04 845.59 1287.8 845.59 1285.01C845.59 1282.22 847.824 1279.98 850.617 1279.98C853.298 1279.98 855.644 1282.22 855.644 1285.01Z" fill="black"/>
<path d="M886.924 1285.01C886.924 1287.8 884.69 1290.04 881.897 1290.04C879.104 1290.04 876.87 1287.8 876.87 1285.01C876.87 1282.22 879.104 1279.98 881.897 1279.98C884.578 1279.98 886.924 1282.22 886.924 1285.01Z" fill="black"/>
<path d="M858.772 1294.95H873.072C873.072 1294.95 870.837 1301.32 866.257 1301.32C861.677 1301.32 858.772 1294.95 858.772 1294.95Z" fill="black"/>
<path d="M866.034 1300.43C866.034 1300.43 866.481 1311.26 856.65 1311.26C850.953 1311.26 848.271 1306.91 848.271 1306.91" stroke="black" stroke-width="3" stroke-linecap="round" stroke-linejoin="round"/>
<path d="M866.257 1300.43C866.257 1300.43 865.81 1311.26 875.641 1311.26C881.338 1311.26 884.019 1306.91 884.019 1306.91" stroke="black" stroke-width="3" stroke-linecap="round" stroke-linejoin="round"/>
<path d="M792.526 1380.97H856.65C856.65 1380.97 865.81 1380.97 865.81 1370.7C865.81 1361.98 856.315 1362.32 842.685 1362.32C829.056 1362.32 736.223 1362.88 712.651 1328.13C712.651 1328.13 736.558 1407.67 822.912 1407.67C868.603 1407.67 902.564 1380.42 914.182 1367.68C914.182 1367.68 920.438 1359.86 911.166 1359.52C899.547 1359.08 875.976 1366.79 862.682 1378.63" fill="white"/>
<path d="M792.526 1380.97H856.65C856.65 1380.97 865.81 1380.97 865.81 1370.7C865.81 1361.98 856.315 1362.32 842.685 1362.32C829.056 1362.32 736.223 1362.88 712.651 1328.13C712.651 1328.13 736.558 1407.67 822.912 1407.67C868.603 1407.67 902.564 1380.42 914.182 1367.68C914.182 1367.68 920.438 1359.86 911.166 1359.52C899.547 1359.08 875.976 1366.79 862.682 1378.63" stroke="black" stroke-width="6" stroke-linecap="round" stroke-linejoin="round"/>
<path d="M706.396 1255.74C713.881 1255.74 715.334 1247.7 715.334 1247.7L708.631 1243.79L706.396 1255.74Z" fill="black"/>
<path d="M885.807 1333.05L896.978 1361.54" stroke="black" stroke-width="6" stroke-linecap="round" stroke-linejoin="round"/>
<path d="M1281.4 1232.86L1340.03 1291.49C1344.61 1296.07 1350.71 1298.61 1357.15 1298.61C1363.59 1298.61 1369.69 1296.07 1374.26 1291.49L1418.66 1247.1C1420.53 1247.6 1422.56 1247.27 1423.92 1245.74L1439.84 1229.81L1431.2 1221L1415.27 1236.93C1413.92 1238.28 1413.41 1240.32 1414.09 1242.35L1369.69 1286.75C1366.47 1289.97 1362.06 1291.83 1357.32 1291.83C1352.57 1291.83 1348.17 1289.97 1344.95 1286.75L1285.98 1227.78C1285.81 1227.61 1285.64 1227.44 1285.47 1227.27C1283.6 1225.74 1275.47 1219.81 1266.32 1223.71C1257.17 1227.78 1257 1239.3 1257 1239.81V1421.47C1257 1423.33 1258.53 1424.86 1260.39 1424.86C1262.25 1424.86 1263.78 1423.33 1263.78 1421.47V1239.81C1263.78 1239.81 1263.95 1232.18 1269.03 1229.98C1275.13 1227.27 1281.23 1232.69 1281.4 1232.69C1281.4 1232.69 1281.4 1232.86 1281.4 1232.86Z" fill="white"/>
<path d="M1399.85 1296.24C1398.5 1297.59 1397.99 1299.63 1398.5 1301.49L1368.67 1331.32C1365.45 1334.54 1361.05 1336.4 1356.3 1336.4C1351.56 1336.4 1347.15 1334.54 1343.93 1331.32L1299.87 1287.26C1299.53 1286.92 1290.38 1278.28 1281.23 1283.36C1273.78 1287.6 1273.78 1297.09 1273.78 1297.59V1421.3C1273.78 1423.16 1275.3 1424.69 1277.16 1424.69C1279.03 1424.69 1280.55 1423.16 1280.55 1421.3V1297.59C1280.55 1297.59 1280.72 1291.66 1284.62 1289.29C1289.2 1286.58 1295.13 1292 1295.13 1292L1339.19 1336.06C1343.76 1340.64 1349.86 1343.18 1356.3 1343.18C1362.74 1343.18 1368.84 1340.64 1373.42 1336.06L1403.24 1306.24C1405.1 1306.75 1407.31 1306.41 1408.66 1305.05L1424.59 1289.12L1415.78 1280.31L1399.85 1296.24Z" fill="white"/>
<path d="M1434.08 1257.77C1424.76 1253.03 1415.78 1262.01 1415.44 1262.35L1368.33 1309.12C1365.11 1312.34 1360.71 1314.2 1355.96 1314.2C1351.22 1314.2 1346.81 1312.34 1343.59 1309.12L1300.21 1265.4C1300.55 1263.7 1300.04 1261.84 1298.85 1260.65L1282.93 1244.72L1274.11 1253.54L1290.04 1269.46C1291.57 1270.99 1293.77 1271.33 1295.97 1270.48L1339.19 1313.69C1343.76 1318.27 1349.86 1320.81 1356.3 1320.81C1362.74 1320.81 1368.84 1318.27 1373.42 1313.69L1420.53 1266.92C1420.53 1266.92 1426.46 1261.16 1431.2 1263.53C1434.42 1265.23 1435.1 1271.33 1435.1 1273.36V1420.96C1435.1 1422.82 1436.62 1424.35 1438.49 1424.35C1440.35 1424.35 1441.88 1422.82 1441.88 1420.96V1273.7C1441.71 1272.51 1441.71 1261.67 1434.08 1257.77Z" fill="white"/>
<path d="M1417.81 1317.42C1408.66 1312.34 1399.17 1321.66 1398.83 1322L1367.65 1353.68C1364.43 1356.9 1360.03 1358.77 1355.28 1358.77C1350.54 1358.77 1346.13 1356.9 1342.91 1353.68L1315.46 1326.23C1315.63 1324.54 1315.29 1322.84 1314.11 1321.66L1298.18 1305.73L1289.37 1314.54L1305.29 1330.47C1306.82 1331.99 1309.19 1332.33 1311.23 1331.49L1338.17 1358.43C1342.74 1363 1348.84 1365.55 1355.28 1365.55C1361.72 1365.55 1367.82 1363 1372.4 1358.43L1403.58 1326.74C1403.58 1326.74 1409.85 1320.81 1414.42 1323.35C1417.14 1324.88 1417.81 1330.64 1417.81 1333.35V1421.47C1417.81 1423.33 1419.34 1424.86 1421.2 1424.86C1423.07 1424.86 1424.59 1423.33 1424.59 1421.47V1333.52C1424.76 1332.16 1425.1 1321.32 1417.81 1317.42Z" fill="white"/>
<path d="M1339.59 160.09L1406.25 181.735L1447.45 238.395V308.695L1406.25 365.172L1339.59 386.999L1273.02 365.172L1231.82 308.332V238.395L1273.02 181.735L1339.59 160.09Z" fill="url(#paint0_linear)"/>
<path d="M1285.66 199.197L1265.11 262.586L1319.04 365.172H1360.24L1414.17 262.586L1393.52 199.197H1285.66Z" fill="url(#paint1_linear)"/>
<path d="M1298.39 286.869H1380.79L1339.59 316.881L1298.39 286.869Z" fill="#A54537"/>
<path d="M1364.96 238.485L1380.7 286.959" stroke="#A54537" stroke-width="3"/>
<path d="M1314.13 238.395L1298.3 287.778" stroke="#A54537" stroke-width="3"/>
<path d="M1380.7 286.959L1393.52 326.066L1372.97 340.981L1339.59 326.066V316.79L1380.7 286.959Z" fill="#FAF7E6" stroke="#A54537" stroke-width="3"/>
<path d="M1298.58 286.959L1285.66 326.066L1306.31 340.981L1339.59 326.066V316.79L1298.58 286.959Z" fill="#FAF7E6" stroke="#A54537" stroke-width="3"/>
<path d="M1306.31 340.981L1319.04 365.172H1360.24L1372.97 340.981L1339.59 326.065L1306.31 340.981Z" fill="#FAF7E6" stroke="#A54537" stroke-width="3"/>
<path d="M1369.06 250.49L1406.34 238.395H1365.06L1369.06 250.49Z" fill="#A54537"/>
<path d="M1310.31 250.49L1272.93 238.395H1314.13L1310.31 250.49Z" fill="#A54537"/>
<path d="M1273.02 181.735L1285.66 199.197H1393.52L1406.25 181.735L1368.97 181.372L1339.59 160.09L1310.03 181.735H1273.02Z" fill="#FAF7E6"/>
<path d="M1283.84 199.197H1395.43" stroke="#A54537" stroke-width="3"/>
<path d="M819.908 716.386L831.329 747.922C835.362 759.059 844.133 767.83 855.27 771.863L886.806 783.284C906.647 790.47 906.647 818.53 886.806 825.715L855.27 837.136C844.133 841.17 835.362 849.941 831.329 861.078L819.908 892.614C812.722 912.455 784.662 912.455 777.477 892.614L766.056 861.078C762.022 849.941 753.251 841.17 742.114 837.136L710.578 825.715C690.737 818.53 690.737 790.47 710.578 783.284L742.114 771.863C753.251 767.83 762.022 759.059 766.056 747.922L777.477 716.386C784.662 696.545 812.722 696.545 819.908 716.386Z" stroke="url(#paint2_radial)" stroke-width="17.3569"/>
<mask id="mask0" mask-type="alpha" maskUnits="userSpaceOnUse" x="687" y="692" width="224" height="225">
<path d="M819.908 716.386L831.329 747.922C835.362 759.059 844.133 767.83 855.27 771.863L886.806 783.284C906.647 790.47 906.647 818.53 886.806 825.715L855.27 837.136C844.133 841.17 835.362 849.941 831.329 861.078L819.908 892.614C812.722 912.455 784.662 912.455 777.477 892.614L766.056 861.078C762.022 849.941 753.251 841.17 742.114 837.136L710.578 825.715C690.737 818.53 690.737 790.47 710.578 783.284L742.114 771.863C753.251 767.83 762.022 759.059 766.056 747.922L777.477 716.386C784.662 696.545 812.722 696.545 819.908 716.386Z" stroke="white" stroke-width="17.3569"/>
</mask>
<g mask="url(#mask0)">
<path d="M807.024 693.069C818.836 694.845 825.565 705.345 828.342 711.13C839.104 721.892 836.531 758.677 871.939 768.744C913.248 780.489 894.155 824.634 871.939 819.079L841.533 807.982C797.331 801.965 711.353 792.176 723.016 788.532C739.679 783.325 767.103 773.605 772.31 738.197C777.517 702.789 788.482 690.281 807.024 693.069Z" fill="url(#paint3_linear)"/>
<mask id="mask1" mask-type="alpha" maskUnits="userSpaceOnUse" x="721" y="692" width="176" height="128">
<path d="M807.024 693.069C818.836 694.845 825.565 705.345 828.342 711.13C839.104 721.892 836.531 758.677 871.939 768.744C913.248 780.489 894.155 824.634 871.939 819.079L841.533 807.982C797.331 801.965 711.353 792.176 723.016 788.532C739.679 783.325 767.103 773.605 772.31 738.197C777.517 702.789 788.482 690.281 807.024 693.069Z" fill="url(#paint4_linear)"/>
</mask>
<g mask="url(#mask1)">
<g opacity="0.3">
<rect x="851.189" y="759.372" width="95.4707" height="36.3514" transform="rotate(22 851.189 759.372)" fill="url(#paint5_linear)" style="mix-blend-mode:multiply"/>
</g>
</g>
<path d="M790.747 915.717C778.935 913.941 772.205 903.441 769.428 897.655C758.667 886.894 761.24 850.108 725.832 840.041C684.523 828.296 703.615 784.152 725.832 789.706L756.237 800.804C800.439 806.821 886.417 816.609 874.754 820.254C858.091 825.461 830.668 835.181 825.461 870.589C820.254 905.997 809.288 918.505 790.747 915.717Z" fill="url(#paint6_linear)"/>
<mask id="mask2" mask-type="alpha" maskUnits="userSpaceOnUse" x="701" y="789" width="175" height="128">
<path d="M790.747 915.717C778.935 913.941 772.205 903.441 769.428 897.655C758.667 886.894 761.24 850.108 725.832 840.041C684.523 828.296 703.615 784.152 725.832 789.706L756.237 800.804C800.439 806.821 886.417 816.609 874.754 820.254C858.091 825.461 830.668 835.181 825.461 870.589C820.254 905.997 809.288 918.505 790.747 915.717Z" fill="url(#paint7_linear)"/>
</mask>
<g mask="url(#mask2)">
<g opacity="0.3">
<rect x="746.581" y="849.414" width="95.4707" height="36.3514" transform="rotate(-158 746.581 849.414)" fill="url(#paint8_linear)" style="mix-blend-mode:multiply"/>
</g>
</g>
</g>
<mask id="mask3" mask-type="alpha" maskUnits="userSpaceOnUse" x="626" y="632" width="345" height="345">
<path d="M819.908 716.386L831.329 747.922C835.362 759.059 844.133 767.83 855.27 771.863L886.806 783.284C906.647 790.47 906.647 818.53 886.806 825.715L855.27 837.136C844.133 841.17 835.362 849.941 831.329 861.078L819.908 892.614C812.722 912.455 784.662 912.455 777.477 892.614L766.056 861.078C762.022 849.941 753.251 841.17 742.114 837.136L710.578 825.715C690.737 818.53 690.737 790.47 710.578 783.284L742.114 771.863C753.251 767.83 762.022 759.059 766.056 747.922L777.477 716.386C784.662 696.545 812.722 696.545 819.908 716.386Z" stroke="url(#paint9_radial)" stroke-width="17.3569"/>
<mask id="mask4" maskUnits="userSpaceOnUse" x="687" y="692" width="224" height="225">
<path d="M819.908 716.386L831.329 747.922C835.362 759.059 844.133 767.83 855.27 771.863L886.806 783.284C906.647 790.47 906.647 818.53 886.806 825.715L855.27 837.136C844.133 841.17 835.362 849.941 831.329 861.078L819.908 892.614C812.722 912.455 784.662 912.455 777.477 892.614L766.056 861.078C762.022 849.941 753.251 841.17 742.114 837.136L710.578 825.715C690.737 818.53 690.737 790.47 710.578 783.284L742.114 771.863C753.251 767.83 762.022 759.059 766.056 747.922L777.477 716.386C784.662 696.545 812.722 696.545 819.908 716.386Z" stroke="white" stroke-width="17.3569"/>
</mask>
<g mask="url(#mask4)">
<path d="M807.024 693.069C818.836 694.845 825.565 705.345 828.342 711.13C839.104 721.892 836.531 758.677 871.939 768.744C913.248 780.489 894.155 824.634 871.939 819.079L841.533 807.982C797.331 801.965 711.353 792.176 723.016 788.532C739.679 783.325 767.103 773.605 772.31 738.197C777.517 702.789 788.482 690.281 807.024 693.069Z" fill="url(#paint10_linear)"/>
<mask id="mask5" maskUnits="userSpaceOnUse" x="721" y="692" width="176" height="128">
<path d="M807.024 693.069C818.836 694.845 825.565 705.345 828.342 711.13C839.104 721.892 836.531 758.677 871.939 768.744C913.248 780.489 894.155 824.634 871.939 819.079L841.533 807.982C797.331 801.965 711.353 792.176 723.016 788.532C739.679 783.325 767.103 773.605 772.31 738.197C777.517 702.789 788.482 690.281 807.024 693.069Z" fill="url(#paint11_linear)"/>
</mask>
<g mask="url(#mask5)">
<g opacity="0.3">
<rect x="851.189" y="759.372" width="95.4707" height="36.3514" transform="rotate(22 851.189 759.372)" fill="url(#paint12_linear)"/>
</g>
</g>
<path d="M790.747 915.717C778.935 913.941 772.205 903.441 769.428 897.655C758.667 886.894 761.24 850.108 725.832 840.041C684.523 828.296 703.615 784.152 725.832 789.706L756.237 800.804C800.439 806.821 886.417 816.609 874.754 820.254C858.091 825.461 830.668 835.181 825.461 870.589C820.254 905.997 809.288 918.505 790.747 915.717Z" fill="url(#paint13_linear)"/>
<mask id="mask6" maskUnits="userSpaceOnUse" x="701" y="789" width="175" height="128">
<path d="M790.747 915.717C778.935 913.941 772.205 903.441 769.428 897.655C758.667 886.894 761.24 850.108 725.832 840.041C684.523 828.296 703.615 784.152 725.832 789.706L756.237 800.804C800.439 806.821 886.417 816.609 874.754 820.254C858.091 825.461 830.668 835.181 825.461 870.589C820.254 905.997 809.288 918.505 790.747 915.717Z" fill="url(#paint14_linear)"/>
</mask>
<g mask="url(#mask6)">
<g opacity="0.3">
<rect x="746.581" y="849.414" width="95.4707" height="36.3514" transform="rotate(-158 746.581 849.414)" fill="url(#paint15_linear)"/>
</g>
</g>
</g>
</mask>
<g mask="url(#mask3)">
<g opacity="0.3">
<rect x="786.752" y="719.986" width="41.22" height="21.6157" transform="rotate(109.5 786.752 719.986)" fill="url(#paint16_linear)" style="mix-blend-mode:multiply"/>
</g>
<g opacity="0.3">
<rect x="747.17" y="849.515" width="41.22" height="21.6158" transform="rotate(-160 747.17 849.515)" fill="url(#paint17_linear)" style="mix-blend-mode:multiply"/>
</g>
<g opacity="0.3">
<rect x="808.866" y="889.821" width="41.22" height="21.6157" transform="rotate(-73 808.866 889.821)" fill="url(#paint18_linear)" style="mix-blend-mode:multiply"/>
</g>
<g opacity="0.3">
<rect x="884.75" y="793.251" width="41.22" height="21.6158" transform="rotate(-160 884.75 793.251)" fill="url(#paint19_linear)" style="mix-blend-mode:multiply"/>
</g>
</g>
<path d="M875.808 757.196L861.584 787.571C856.561 798.298 856.561 810.702 861.584 821.429L875.808 851.804C884.756 870.915 864.915 890.756 845.804 881.808L815.429 867.584C804.702 862.561 792.298 862.561 781.571 867.584L751.196 881.808C732.085 890.756 712.244 870.915 721.192 851.804L735.416 821.429C740.439 810.702 740.439 798.298 735.416 787.571L721.192 757.196C712.244 738.085 732.085 718.244 751.196 727.192L781.571 741.416C792.298 746.439 804.702 746.439 815.429 741.416L845.804 727.192C864.915 718.244 884.756 738.085 875.808 757.196Z" stroke="url(#paint20_radial)" stroke-width="17.3569"/>
<mask id="mask7" mask-type="alpha" maskUnits="userSpaceOnUse" x="640" y="646" width="317" height="317">
<path d="M875.808 757.196L861.584 787.571C856.561 798.298 856.561 810.702 861.584 821.429L875.808 851.804C884.756 870.915 864.915 890.756 845.804 881.808L815.429 867.584C804.702 862.561 792.298 862.561 781.571 867.584L751.196 881.808C732.085 890.756 712.244 870.915 721.192 851.804L735.416 821.429C740.439 810.702 740.439 798.298 735.416 787.571L721.192 757.196C712.244 738.085 732.085 718.244 751.196 727.192L781.571 741.416C792.298 746.439 804.702 746.439 815.429 741.416L845.804 727.192C864.915 718.244 884.756 738.085 875.808 757.196Z" stroke="white" stroke-width="17.3569"/>
</mask>
<g mask="url(#mask7)">
<path d="M883.184 731.598C890.281 741.206 887.615 753.389 885.487 759.444C885.487 774.662 857.657 798.854 875.575 831.01C896.481 868.525 851.765 886.239 839.983 866.602L826.33 837.255C799.329 801.745 745.455 734.028 756.28 739.698C771.744 747.798 798.008 760.317 826.728 738.961C855.447 717.606 872.045 716.516 883.184 731.598Z" fill="url(#paint21_linear)"/>
<mask id="mask8" mask-type="alpha" maskUnits="userSpaceOnUse" x="754" y="721" width="134" height="154">
<path d="M883.184 731.598C890.281 741.206 887.615 753.389 885.487 759.444C885.487 774.662 857.657 798.854 875.575 831.01C896.481 868.525 851.765 886.239 839.983 866.602L826.33 837.255C799.329 801.745 745.455 734.028 756.28 739.698C771.744 747.798 798.008 760.317 826.728 738.961C855.447 717.606 872.045 716.516 883.184 731.598Z" fill="url(#paint22_linear)"/>
</mask>
<g mask="url(#mask8)">
<g opacity="0.3">
<rect x="867.531" y="809.711" width="95.4707" height="36.3514" transform="rotate(67 867.531 809.711)" fill="url(#paint23_linear)" style="mix-blend-mode:multiply"/>
</g>
</g>
<path d="M714.239 877.524C707.142 867.916 709.808 855.733 711.936 849.678C711.936 834.459 739.766 810.267 721.847 778.111C700.942 740.597 745.658 722.882 757.44 742.519L771.092 771.866C798.093 807.377 851.967 875.094 841.143 869.424C825.679 861.323 799.415 848.805 770.695 870.16C741.976 891.516 725.378 892.606 714.239 877.524Z" fill="url(#paint24_linear)"/>
<mask id="mask9" mask-type="alpha" maskUnits="userSpaceOnUse" x="709" y="734" width="134" height="154">
<path d="M714.239 877.524C707.142 867.916 709.808 855.733 711.936 849.678C711.936 834.459 739.766 810.267 721.847 778.111C700.942 740.597 745.658 722.882 757.44 742.519L771.092 771.866C798.093 807.377 851.967 875.094 841.143 869.424C825.679 861.323 799.415 848.805 770.695 870.16C741.976 891.516 725.378 892.606 714.239 877.524Z" fill="url(#paint25_linear)"/>
</mask>
<g mask="url(#mask9)">
<g opacity="0.3">
<rect x="729.893" y="799.411" width="95.4707" height="36.3514" transform="rotate(-113 729.893 799.411)" fill="url(#paint26_linear)" style="mix-blend-mode:multiply"/>
</g>
</g>
</g>
<mask id="mask10" mask-type="alpha" maskUnits="userSpaceOnUse" x="555" y="561" width="488" height="487">
<path d="M876 757.196L861.777 787.571C856.754 798.298 856.754 810.702 861.777 821.429L876 851.804C884.949 870.915 865.107 890.756 845.997 881.808L815.622 867.584C804.894 862.561 792.49 862.561 781.763 867.584L751.388 881.808C732.277 890.756 712.436 870.915 721.385 851.804L735.608 821.429C740.631 810.702 740.631 798.298 735.608 787.571L721.385 757.196C712.436 738.085 732.278 718.244 751.388 727.192L781.763 741.416C792.49 746.439 804.894 746.439 815.622 741.416L845.997 727.192C865.107 718.244 884.949 738.085 876 757.196Z" stroke="url(#paint27_radial)" stroke-width="17.3569"/>
<mask id="mask11" maskUnits="userSpaceOnUse" x="640" y="646" width="317" height="317">
<path d="M876 757.196L861.777 787.571C856.754 798.298 856.754 810.702 861.777 821.429L876 851.804C884.949 870.915 865.107 890.756 845.997 881.808L815.622 867.584C804.894 862.561 792.49 862.561 781.763 867.584L751.388 881.808C732.277 890.756 712.436 870.915 721.385 851.804L735.608 821.429C740.631 810.702 740.631 798.298 735.608 787.571L721.385 757.196C712.436 738.085 732.278 718.244 751.388 727.192L781.763 741.416C792.49 746.439 804.894 746.439 815.622 741.416L845.997 727.192C865.107 718.244 884.949 738.085 876 757.196Z" stroke="white" stroke-width="17.3569"/>
</mask>
<g mask="url(#mask11)">
<path d="M883.377 731.598C890.473 741.206 887.807 753.389 885.68 759.444C885.68 774.662 857.849 798.854 875.768 831.01C896.673 868.525 851.958 886.239 840.175 866.602L826.523 837.255C799.522 801.745 745.648 734.028 756.472 739.698C771.937 747.798 798.201 760.317 826.92 738.961C855.639 717.606 872.237 716.516 883.377 731.598Z" fill="url(#paint28_linear)"/>
<mask id="mask12" maskUnits="userSpaceOnUse" x="755" y="721" width="133" height="154">
<path d="M883.377 731.598C890.473 741.206 887.807 753.389 885.68 759.444C885.68 774.662 857.849 798.854 875.768 831.01C896.673 868.525 851.958 886.239 840.175 866.602L826.523 837.255C799.522 801.745 745.648 734.028 756.472 739.698C771.937 747.798 798.201 760.317 826.92 738.961C855.639 717.606 872.237 716.516 883.377 731.598Z" fill="url(#paint29_linear)"/>
</mask>
<g mask="url(#mask12)">
<g opacity="0.3">
<rect x="867.723" y="809.711" width="95.4707" height="36.3514" transform="rotate(67 867.723 809.711)" fill="url(#paint30_linear)"/>
</g>
</g>
<path d="M714.431 877.524C707.335 867.916 710.001 855.733 712.128 849.678C712.128 834.459 739.959 810.267 722.04 778.111C701.135 740.597 745.85 722.882 757.632 742.519L771.285 771.866C798.286 807.377 852.16 875.094 841.336 869.424C825.871 861.323 799.607 848.805 770.888 870.16C742.168 891.516 725.571 892.606 714.431 877.524Z" fill="url(#paint31_linear)"/>
<mask id="mask13" maskUnits="userSpaceOnUse" x="709" y="734" width="134" height="154">
<path d="M714.431 877.524C707.335 867.916 710.001 855.733 712.128 849.678C712.128 834.459 739.959 810.267 722.04 778.111C701.135 740.597 745.85 722.882 757.632 742.519L771.285 771.866C798.286 807.377 852.16 875.094 841.336 869.424C825.871 861.323 799.607 848.805 770.888 870.16C742.168 891.516 725.571 892.606 714.431 877.524Z" fill="url(#paint32_linear)"/>
</mask>
<g mask="url(#mask13)">
<g opacity="0.3">
<rect x="730.085" y="799.411" width="95.4707" height="36.3514" transform="rotate(-113 730.085 799.411)" fill="url(#paint33_linear)"/>
</g>
</g>
</g>
</mask>
<g mask="url(#mask10)">
<g opacity="0.3">
<rect x="793.668" y="875.343" width="41.22" height="21.6157" transform="rotate(157.5 793.668 875.343)" fill="url(#paint34_linear)" style="mix-blend-mode:multiply"/>
</g>
<g opacity="0.3">
<rect x="866.467" y="853.246" width="41.22" height="21.6157" transform="rotate(-114.5 866.467 853.246)" fill="url(#paint35_linear)" style="mix-blend-mode:multiply"/>
</g>
<g opacity="0.3">
<rect x="732.21" y="752.971" width="41.22" height="21.6158" transform="rotate(66 732.21 752.971)" fill="url(#paint36_linear)" style="mix-blend-mode:multiply"/>
</g>
<g opacity="0.3">
<rect x="849.904" y="737.877" width="41.22" height="21.6157" transform="rotate(157.5 849.904 737.877)" fill="url(#paint37_linear)" style="mix-blend-mode:multiply"/>
</g>
</g>
<mask id="mask14" mask-type="alpha" maskUnits="userSpaceOnUse" x="709" y="715" width="180" height="180">
<circle cx="826.81" cy="735.611" r="20.4811" fill="#E43636"/>
<circle cx="867.772" cy="832.809" r="20.4811" fill="#E43636"/>
<circle cx="771.267" cy="873.772" r="20.4811" fill="#E43636"/>
<circle cx="730.305" cy="776.573" r="20.4811" fill="#E43636"/>
</mask>
<g mask="url(#mask14)">
<path d="M819.907 716.577L831.328 748.113C835.361 759.25 844.132 768.021 855.269 772.055L886.805 783.476C906.646 790.661 906.646 818.721 886.805 825.907L855.269 837.328C844.132 841.361 835.361 850.132 831.328 861.269L819.907 892.805C812.721 912.646 784.661 912.646 777.476 892.805L766.055 861.269C762.021 850.132 753.25 841.361 742.113 837.328L710.577 825.907C690.736 818.721 690.736 790.661 710.577 783.476L742.113 772.055C753.25 768.021 762.021 759.25 766.055 748.113L777.476 716.577C784.661 696.736 812.721 696.736 819.907 716.577Z" stroke="url(#paint38_radial)" stroke-width="17.3569"/>
<mask id="mask15" mask-type="alpha" maskUnits="userSpaceOnUse" x="687" y="693" width="224" height="224">
<path d="M819.907 716.577L831.328 748.113C835.361 759.25 844.132 768.021 855.269 772.055L886.805 783.476C906.646 790.661 906.646 818.721 886.805 825.907L855.269 837.328C844.132 841.361 835.361 850.132 831.328 861.269L819.907 892.805C812.721 912.646 784.661 912.646 777.476 892.805L766.055 861.269C762.021 850.132 753.25 841.361 742.113 837.328L710.577 825.907C690.736 818.721 690.736 790.661 710.577 783.476L742.113 772.055C753.25 768.021 762.021 759.25 766.055 748.113L777.476 716.577C784.661 696.736 812.721 696.736 819.907 716.577Z" stroke="white" stroke-width="17.3569"/>
</mask>
<g mask="url(#mask15)">
<path d="M807.023 693.261C818.835 695.037 825.564 705.537 828.341 711.322C839.103 722.084 836.53 758.869 871.938 768.936C913.247 780.681 894.154 824.826 871.938 819.271L841.532 808.174C797.33 802.157 711.352 792.368 723.015 788.723C739.678 783.516 767.102 773.797 772.309 738.389C777.516 702.981 788.481 690.473 807.023 693.261Z" fill="url(#paint39_linear)"/>
<mask id="mask16" mask-type="alpha" maskUnits="userSpaceOnUse" x="721" y="692" width="176" height="128">
<path d="M807.023 693.261C818.835 695.037 825.564 705.537 828.341 711.322C839.103 722.084 836.53 758.869 871.938 768.936C913.247 780.681 894.154 824.826 871.938 819.271L841.532 808.174C797.33 802.157 711.352 792.368 723.015 788.723C739.678 783.516 767.102 773.797 772.309 738.389C777.516 702.981 788.481 690.473 807.023 693.261Z" fill="url(#paint40_linear)"/>
</mask>
<g mask="url(#mask16)">
<g opacity="0.3">
<rect x="851.188" y="759.563" width="95.4707" height="36.3514" transform="rotate(22 851.188 759.563)" fill="url(#paint41_linear)" style="mix-blend-mode:multiply"/>
</g>
</g>
<path d="M790.745 915.909C778.933 914.133 772.203 903.633 769.426 897.847C758.665 887.086 761.238 850.3 725.83 840.233C684.521 828.488 703.613 784.344 725.83 789.898L756.235 800.996C800.438 807.013 886.416 816.801 874.752 820.446C858.089 825.653 830.666 835.373 825.459 870.781C820.252 906.189 809.286 918.696 790.745 915.909Z" fill="url(#paint42_linear)"/>
<mask id="mask17" mask-type="alpha" maskUnits="userSpaceOnUse" x="701" y="789" width="175" height="128">
<path d="M790.745 915.909C778.933 914.133 772.203 903.633 769.426 897.847C758.665 887.086 761.238 850.3 725.83 840.233C684.521 828.488 703.613 784.344 725.83 789.898L756.235 800.996C800.438 807.013 886.416 816.801 874.752 820.446C858.089 825.653 830.666 835.373 825.459 870.781C820.252 906.189 809.286 918.696 790.745 915.909Z" fill="url(#paint43_linear)"/>
</mask>
<g mask="url(#mask17)">
<g opacity="0.3">
<rect x="746.579" y="849.606" width="95.4707" height="36.3514" transform="rotate(-158 746.579 849.606)" fill="url(#paint44_linear)" style="mix-blend-mode:multiply"/>
</g>
</g>
</g>
</g>
<rect x="1066" y="533" width="533" height="533" fill="black"/>
<path d="M1332 911C1273.58 911 1226 863.416 1226 805C1226 746.584 1273.58 699 1332 699C1390.42 699 1438 746.584 1438 805C1438 863.416 1390.42 911 1332 911ZM1332 710.109C1279.69 710.109 1237.11 752.694 1237.11 805C1237.11 857.306 1279.69 899.891 1332 899.891C1384.31 899.891 1426.89 857.306 1426.89 805C1426.89 752.694 1384.31 710.109 1332 710.109Z" fill="white"/>
<path d="M1353.11 823.423C1350.33 818.886 1343.76 811.943 1331.26 805.463C1308.86 793.798 1293.3 805.278 1293.3 805.278C1293.3 805.278 1302.38 806.759 1309.87 812.128C1315.15 815.831 1314.78 820.368 1315.15 822.497C1314.78 822.589 1314.5 822.682 1314.13 822.867C1262.85 837.587 1262.01 776.394 1299.6 776.394C1334.59 776.394 1327.19 791.669 1351.35 798.612C1363.2 802.037 1377.73 795.279 1377.73 795.279C1377.73 795.279 1353.39 786.67 1353.39 759.73C1353.39 740.289 1348.76 723.625 1324.96 722.144C1324.96 722.144 1335.8 731.957 1335.43 742.696C1335.15 753.157 1331.07 762.507 1312.56 762.507C1277.38 762.507 1260.99 780.745 1257.94 793.983C1251.18 822.867 1267.2 843.049 1295.9 853.973C1296.73 854.343 1309.78 849.529 1309.78 849.529C1309.78 849.529 1308.86 856.01 1299.6 858.787C1290.34 861.564 1281.45 862.212 1273.68 860.638C1273.68 860.638 1294.97 878.228 1318.95 865.545C1333.76 872.673 1351.53 876.191 1371.72 867.952C1393.75 858.972 1398.1 842.679 1398.1 842.679C1398.1 842.679 1383.2 827.033 1353.11 823.423ZM1372.27 849.437C1368.94 849.437 1366.25 846.752 1366.25 843.419C1366.25 840.086 1368.94 837.402 1372.27 837.402C1375.6 837.402 1378.29 840.086 1378.29 843.419C1378.29 846.752 1375.6 849.437 1372.27 849.437Z" fill="white"/>
<defs>
<linearGradient id="paint0_linear" x1="1339.63" y1="159.391" x2="1339.63" y2="385.746" gradientUnits="userSpaceOnUse">
<stop stop-color="#B05B3A"/>
<stop offset="1" stop-color="#88443B"/>
</linearGradient>
<linearGradient id="paint1_linear" x1="1339.64" y1="198.507" x2="1339.64" y2="355.128" gradientUnits="userSpaceOnUse">
<stop stop-color="#F2C67A"/>
<stop offset="1" stop-color="#F7E696"/>
</linearGradient>
<radialGradient id="paint2_radial" cx="0" cy="0" r="1" gradientUnits="userSpaceOnUse" gradientTransform="translate(779.6 762.149) rotate(152.692) scale(143.769)">
<stop stop-color="#24BCED"/>
<stop offset="1" stop-color="#DD0FFF"/>
</radialGradient>
<linearGradient id="paint3_linear" x1="817.438" y1="721.534" x2="862.219" y2="772.216" gradientUnits="userSpaceOnUse">
<stop stop-color="#437CEA"/>
<stop offset="1" stop-color="#BE0ACE"/>
</linearGradient>
<linearGradient id="paint4_linear" x1="809.108" y1="692.693" x2="809.108" y2="819.56" gradientUnits="userSpaceOnUse">
<stop stop-color="#C4C4C4"/>
<stop offset="1" stop-color="#C4C4C4" stop-opacity="0"/>
</linearGradient>
<linearGradient id="paint5_linear" x1="946.66" y1="777.547" x2="851.189" y2="777.547" gradientUnits="userSpaceOnUse">
<stop stop-opacity="0"/>
<stop offset="0.5"/>
<stop offset="1" stop-opacity="0"/>
</linearGradient>
<linearGradient id="paint6_linear" x1="799.734" y1="903.781" x2="750.44" y2="820.121" gradientUnits="userSpaceOnUse">
<stop stop-color="#4B8FF4"/>
<stop offset="1" stop-color="#BA0FF5"/>
</linearGradient>
<linearGradient id="paint7_linear" x1="788.662" y1="916.092" x2="788.662" y2="789.225" gradientUnits="userSpaceOnUse">
<stop stop-color="#1B92E8"/>
<stop offset="1" stop-color="#BA13E7"/>
</linearGradient>
<linearGradient id="paint8_linear" x1="842.052" y1="867.589" x2="746.581" y2="867.589" gradientUnits="userSpaceOnUse">
<stop stop-opacity="0"/>
<stop offset="0.5"/>
<stop offset="1" stop-opacity="0"/>
</linearGradient>
<radialGradient id="paint9_radial" cx="0" cy="0" r="1" gradientUnits="userSpaceOnUse" gradientTransform="translate(779.6 762.149) rotate(152.692) scale(143.769)">
<stop stop-color="#24BCED"/>
<stop offset="1" stop-color="#DD0FFF"/>
</radialGradient>
<linearGradient id="paint10_linear" x1="817.438" y1="721.534" x2="862.219" y2="772.216" gradientUnits="userSpaceOnUse">
<stop stop-color="#437CEA"/>
<stop offset="1" stop-color="#BE0ACE"/>
</linearGradient>
<linearGradient id="paint11_linear" x1="809.108" y1="692.693" x2="809.108" y2="819.56" gradientUnits="userSpaceOnUse">
<stop stop-color="#C4C4C4"/>
<stop offset="1" stop-color="#C4C4C4" stop-opacity="0"/>
</linearGradient>
<linearGradient id="paint12_linear" x1="946.66" y1="777.547" x2="851.189" y2="777.547" gradientUnits="userSpaceOnUse">
<stop stop-opacity="0"/>
<stop offset="0.5"/>
<stop offset="1" stop-opacity="0"/>
</linearGradient>
<linearGradient id="paint13_linear" x1="799.734" y1="903.781" x2="750.44" y2="820.121" gradientUnits="userSpaceOnUse">
<stop stop-color="#4B8FF4"/>
<stop offset="1" stop-color="#BA0FF5"/>
</linearGradient>
<linearGradient id="paint14_linear" x1="788.662" y1="916.092" x2="788.662" y2="789.225" gradientUnits="userSpaceOnUse">
<stop stop-color="#1B92E8"/>
<stop offset="1" stop-color="#BA13E7"/>
</linearGradient>
<linearGradient id="paint15_linear" x1="842.052" y1="867.589" x2="746.581" y2="867.589" gradientUnits="userSpaceOnUse">
<stop stop-opacity="0"/>
<stop offset="0.5"/>
<stop offset="1" stop-opacity="0"/>
</linearGradient>
<linearGradient id="paint16_linear" x1="827.972" y1="730.794" x2="786.752" y2="730.794" gradientUnits="userSpaceOnUse">
<stop stop-opacity="0"/>
<stop offset="0.5"/>
<stop offset="1" stop-opacity="0"/>
</linearGradient>
<linearGradient id="paint17_linear" x1="788.39" y1="860.323" x2="747.17" y2="860.323" gradientUnits="userSpaceOnUse">
<stop stop-opacity="0"/>
<stop offset="0.5"/>
<stop offset="1" stop-opacity="0"/>
</linearGradient>
<linearGradient id="paint18_linear" x1="850.086" y1="900.629" x2="808.866" y2="900.629" gradientUnits="userSpaceOnUse">
<stop stop-opacity="0"/>
<stop offset="0.5"/>
<stop offset="1" stop-opacity="0"/>
</linearGradient>
<linearGradient id="paint19_linear" x1="925.97" y1="804.059" x2="884.75" y2="804.059" gradientUnits="userSpaceOnUse">
<stop stop-opacity="0"/>
<stop offset="0.5"/>
<stop offset="1" stop-opacity="0"/>
</linearGradient>
<radialGradient id="paint20_radial" cx="0" cy="0" r="1" gradientUnits="userSpaceOnUse" gradientTransform="translate(814.946 761.053) rotate(-162.308) scale(143.769)">
<stop stop-color="#24BCED"/>
<stop offset="1" stop-color="#DD0FFF"/>
</radialGradient>
<linearGradient id="paint21_linear" x1="870.42" y1="759.089" x2="866.248" y2="826.592" gradientUnits="userSpaceOnUse">
<stop stop-color="#437CEA"/>
<stop offset="1" stop-color="#BE0ACE"/>
</linearGradient>
<linearGradient id="paint22_linear" x1="884.924" y1="732.806" x2="795.215" y2="822.515" gradientUnits="userSpaceOnUse">
<stop stop-color="#C4C4C4"/>
<stop offset="1" stop-color="#C4C4C4" stop-opacity="0"/>
</linearGradient>
<linearGradient id="paint23_linear" x1="963.002" y1="827.886" x2="867.531" y2="827.886" gradientUnits="userSpaceOnUse">
<stop stop-opacity="0"/>
<stop offset="0.5"/>
<stop offset="1" stop-opacity="0"/>
</linearGradient>
<linearGradient id="paint24_linear" x1="729.033" y1="875.439" x2="753.334" y2="781.426" gradientUnits="userSpaceOnUse">
<stop stop-color="#4B8FF4"/>
<stop offset="1" stop-color="#BA0FF5"/>
</linearGradient>
<linearGradient id="paint25_linear" x1="712.499" y1="876.316" x2="802.208" y2="786.607" gradientUnits="userSpaceOnUse">
<stop stop-color="#1B92E8"/>
<stop offset="1" stop-color="#BA13E7"/>
</linearGradient>
<linearGradient id="paint26_linear" x1="825.363" y1="817.586" x2="729.892" y2="817.586" gradientUnits="userSpaceOnUse">
<stop stop-opacity="0"/>
<stop offset="0.5"/>
<stop offset="1" stop-opacity="0"/>
</linearGradient>
<radialGradient id="paint27_radial" cx="0" cy="0" r="1" gradientUnits="userSpaceOnUse" gradientTransform="translate(815.138 761.053) rotate(-162.308) scale(143.769)">
<stop stop-color="#24BCED"/>
<stop offset="1" stop-color="#DD0FFF"/>
</radialGradient>
<linearGradient id="paint28_linear" x1="870.613" y1="759.089" x2="866.44" y2="826.592" gradientUnits="userSpaceOnUse">
<stop stop-color="#437CEA"/>
<stop offset="1" stop-color="#BE0ACE"/>
</linearGradient>
<linearGradient id="paint29_linear" x1="885.116" y1="732.806" x2="795.407" y2="822.515" gradientUnits="userSpaceOnUse">
<stop stop-color="#C4C4C4"/>
<stop offset="1" stop-color="#C4C4C4" stop-opacity="0"/>
</linearGradient>
<linearGradient id="paint30_linear" x1="963.193" y1="827.886" x2="867.722" y2="827.886" gradientUnits="userSpaceOnUse">
<stop stop-opacity="0"/>
<stop offset="0.5"/>
<stop offset="1" stop-opacity="0"/>
</linearGradient>
<linearGradient id="paint31_linear" x1="729.226" y1="875.439" x2="753.527" y2="781.426" gradientUnits="userSpaceOnUse">
<stop stop-color="#4B8FF4"/>
<stop offset="1" stop-color="#BA0FF5"/>
</linearGradient>
<linearGradient id="paint32_linear" x1="712.692" y1="876.316" x2="802.4" y2="786.607" gradientUnits="userSpaceOnUse">
<stop stop-color="#1B92E8"/>
<stop offset="1" stop-color="#BA13E7"/>
</linearGradient>
<linearGradient id="paint33_linear" x1="825.555" y1="817.586" x2="730.085" y2="817.586" gradientUnits="userSpaceOnUse">
<stop stop-opacity="0"/>
<stop offset="0.5"/>
<stop offset="1" stop-opacity="0"/>
</linearGradient>
<linearGradient id="paint34_linear" x1="834.888" y1="886.151" x2="793.668" y2="886.151" gradientUnits="userSpaceOnUse">
<stop stop-opacity="0"/>
<stop offset="0.5"/>
<stop offset="1" stop-opacity="0"/>
</linearGradient>
<linearGradient id="paint35_linear" x1="907.686" y1="864.054" x2="866.466" y2="864.054" gradientUnits="userSpaceOnUse">
<stop stop-opacity="0"/>
<stop offset="0.5"/>
<stop offset="1" stop-opacity="0"/>
</linearGradient>
<linearGradient id="paint36_linear" x1="773.43" y1="763.778" x2="732.21" y2="763.778" gradientUnits="userSpaceOnUse">
<stop stop-opacity="0"/>
<stop offset="0.5"/>
<stop offset="1" stop-opacity="0"/>
</linearGradient>
<linearGradient id="paint37_linear" x1="891.124" y1="748.685" x2="849.904" y2="748.685" gradientUnits="userSpaceOnUse">
<stop stop-opacity="0"/>
<stop offset="0.5"/>
<stop offset="1" stop-opacity="0"/>
</linearGradient>
<radialGradient id="paint38_radial" cx="0" cy="0" r="1" gradientUnits="userSpaceOnUse" gradientTransform="translate(779.599 762.34) rotate(152.692) scale(143.769)">
<stop stop-color="#24BCED"/>
<stop offset="1" stop-color="#DD0FFF"/>
</radialGradient>
<linearGradient id="paint39_linear" x1="817.437" y1="721.726" x2="862.218" y2="772.408" gradientUnits="userSpaceOnUse">
<stop stop-color="#437CEA"/>
<stop offset="1" stop-color="#BE0ACE"/>
</linearGradient>
<linearGradient id="paint40_linear" x1="809.107" y1="692.885" x2="809.107" y2="819.752" gradientUnits="userSpaceOnUse">
<stop stop-color="#C4C4C4"/>
<stop offset="1" stop-color="#C4C4C4" stop-opacity="0"/>
</linearGradient>
<linearGradient id="paint41_linear" x1="946.659" y1="777.739" x2="851.188" y2="777.739" gradientUnits="userSpaceOnUse">
<stop stop-opacity="0"/>
<stop offset="0.5"/>
<stop offset="1" stop-opacity="0"/>
</linearGradient>
<linearGradient id="paint42_linear" x1="799.732" y1="903.973" x2="750.438" y2="820.313" gradientUnits="userSpaceOnUse">
<stop stop-color="#4B8FF4"/>
<stop offset="1" stop-color="#BA0FF5"/>
</linearGradient>
<linearGradient id="paint43_linear" x1="788.661" y1="916.284" x2="788.661" y2="789.417" gradientUnits="userSpaceOnUse">
<stop stop-color="#1B92E8"/>
<stop offset="1" stop-color="#BA13E7"/>
</linearGradient>
<linearGradient id="paint44_linear" x1="842.05" y1="867.781" x2="746.579" y2="867.781" gradientUnits="userSpaceOnUse">
<stop stop-opacity="0"/>
<stop offset="0.5"/>
<stop offset="1" stop-opacity="0"/>
</linearGradient>
</defs>
</svg>
