<svg width="500" height="375" viewBox="0 0 500 375" fill="none" xmlns="http://www.w3.org/2000/svg">
<g clip-path="url(#clip0)">
<g filter="url(#filter0_d)">
<mask id="mask0" mask-type="alpha" maskUnits="userSpaceOnUse" x="72" y="45" width="356" height="765">
<rect x="73.5075" y="46.5075" width="352.985" height="761.194" rx="38.806" fill="#F4F1F1" stroke="white" stroke-width="2.98507"/>
</mask>
<g mask="url(#mask0)">
<rect x="75" y="48" width="350" height="758.209" rx="37.3134" fill="black"/>
<rect x="73.5075" y="46.5075" width="352.985" height="761.194" rx="38.806" stroke="white" stroke-width="2.98507"/>
</g>
<path d="M188.162 324.732V312.55H192.427V310.009H180.826V312.55H185.08V324.732H188.162ZM204.674 319.345H207.143L209.888 324.732H213.377L210.276 318.886C211.969 318.222 212.949 316.59 212.949 314.702C212.949 311.795 211.01 310.009 207.623 310.009H201.593V324.732H204.674V319.345ZM204.674 312.417H207.297C208.827 312.417 209.786 313.335 209.786 314.764C209.786 316.223 208.878 317.11 207.327 317.11H204.674V312.417ZM225.523 324.732V310.009H222.442V324.732H225.523ZM234.873 320.528C234.965 323.304 237.302 324.977 240.812 324.977C244.495 324.977 246.75 323.161 246.75 320.283C246.75 318.049 245.393 316.794 242.281 316.172L240.72 315.855C238.985 315.509 238.271 314.947 238.271 314.039C238.271 312.958 239.291 312.244 240.812 312.244C242.362 312.244 243.454 312.999 243.556 314.254H246.464C246.413 311.55 244.25 309.754 240.812 309.754C237.536 309.754 235.19 311.54 235.19 314.233C235.19 316.427 236.628 317.835 239.567 318.416L241.118 318.722C242.964 319.1 243.658 319.651 243.658 320.62C243.658 321.702 242.536 322.498 240.893 322.498C239.22 322.498 237.975 321.763 237.781 320.528H234.873ZM259.181 324.732V320.232L260.559 318.58L264.925 324.732H268.609L262.783 316.539L268.231 310.009H264.803L259.273 316.723H259.181V310.009H256.1V324.732H259.181ZM287.131 322.181H280.459V318.467H286.754V316.1H280.459V312.55H287.131V310.009H277.377V324.732H287.131V322.181ZM306.337 322.181H299.899V310.009H296.818V324.732H306.337V322.181ZM325.38 322.181H318.708V318.467H325.003V316.1H318.708V312.55H325.38V310.009H315.626V324.732H325.38V322.181Z" fill="#8153D1"/>
<path d="M294.776 212.722C297.511 212.722 299.674 210.61 299.674 207.926C299.674 205.233 297.511 203.131 294.776 203.131C292.042 203.131 289.879 205.243 289.879 207.926C289.879 210.61 292.052 212.722 294.776 212.722ZM294.776 211.701C292.675 211.701 291.001 210.028 291.001 207.926C291.001 205.814 292.675 204.151 294.776 204.151C296.888 204.151 298.551 205.814 298.551 207.926C298.551 210.028 296.888 211.701 294.776 211.701ZM293.899 210.13V208.426H294.705L295.817 210.13H297.031L295.715 208.294C296.388 208.181 296.797 207.671 296.797 206.937C296.797 206.131 296.123 205.539 295.185 205.539H292.93V210.13H293.899ZM293.899 206.355H295.021C295.501 206.355 295.756 206.569 295.756 206.988C295.756 207.426 295.47 207.681 294.991 207.681H293.899V206.355Z" fill="#8153D1"/>
<path d="M266.626 227.887C266.626 227.887 266.297 228.263 266.277 228.301C266.257 228.339 266.157 228.772 266.155 228.868C266.153 228.964 266.252 229.357 266.326 229.493C266.387 229.623 266.642 229.936 266.786 230.061C266.937 230.174 267.298 230.381 267.52 230.45C267.743 230.52 268.177 230.587 268.459 230.575C268.741 230.562 269.191 230.477 269.495 230.362C269.798 230.248 270.233 230.008 270.52 229.772C270.808 229.535 271.169 229.16 271.408 228.8C271.647 228.441 271.889 227.953 272.022 227.489C272.148 227.037 272.251 226.444 272.244 225.938C272.244 225.419 272.156 224.79 271.99 224.248C271.823 223.706 271.549 223.091 271.209 222.571C270.869 222.05 270.408 221.514 269.913 221.073C269.41 220.645 268.78 220.214 268.14 219.924C267.5 219.633 266.738 219.391 265.991 219.271C265.245 219.151 264.4 219.124 263.604 219.221C262.807 219.317 261.95 219.528 261.161 219.855C260.372 220.182 259.561 220.643 258.863 221.197C258.164 221.75 257.469 222.451 256.907 223.206C256.344 223.961 255.849 224.865 255.495 225.779C255.146 226.712 254.891 227.744 254.796 228.779C254.701 229.814 254.726 230.929 254.925 231.991C255.118 233.065 255.456 234.168 255.938 235.185C256.433 236.208 257.075 237.229 257.835 238.118C258.608 239.013 259.523 239.855 260.558 240.532C261.572 241.216 262.737 241.801 263.944 242.213C265.151 242.626 266.471 242.888 267.788 242.97C269.105 243.053 270.484 242.957 271.836 242.669C273.168 242.387 274.531 241.926 275.789 241.264C277.053 240.621 278.276 239.779 279.35 238.793C280.424 237.806 281.424 236.651 282.229 235.377C283.034 234.102 283.708 232.677 284.173 231.19C284.637 229.702 284.918 228.101 284.969 226.508C285.026 224.902 284.879 223.252 284.501 221.642C284.123 220.032 283.533 218.424 282.723 216.925C281.913 215.427 280.89 213.994 279.697 212.729C278.491 211.459 277.103 210.318 275.568 209.391C274.034 208.465 272.348 207.701 270.58 207.186C268.812 206.67 266.943 206.376 265.048 206.344C263.153 206.312 261.227 206.523 259.346 206.984C257.465 207.446 255.603 208.177 253.877 209.141C252.151 210.106 250.502 211.322 249.053 212.742C247.604 214.161 246.304 215.789 245.243 217.577C244.183 219.364 243.342 221.317 242.775 223.365C242.208 225.414 241.895 227.565 241.875 229.742C241.863 231.906 242.13 234.122 242.695 236.268" stroke="#8153D1" stroke-width="5.97015" stroke-miterlimit="10" stroke-linecap="round" stroke-linejoin="round"/>
<path d="M263.597 268.277C263.597 268.277 263.441 267.806 263.417 267.76C263.392 267.715 263.079 267.419 262.99 267.372C262.902 267.325 262.507 267.214 262.367 267.204C262.226 267.194 261.821 267.255 261.653 267.328C261.472 267.394 261.121 267.597 260.951 267.766C260.78 267.935 260.51 268.261 260.376 268.514C260.242 268.767 260.097 269.193 260.039 269.518C259.992 269.85 259.981 270.33 260.043 270.703C260.104 271.076 260.246 271.573 260.448 271.955C260.638 272.331 260.941 272.799 261.279 273.14C261.604 273.475 262.069 273.851 262.517 274.105C262.966 274.359 263.55 274.603 264.11 274.738C264.658 274.866 265.335 274.933 265.95 274.903C266.566 274.873 267.267 274.742 267.887 274.52C268.507 274.297 269.188 273.961 269.773 273.559C270.347 273.15 270.942 272.607 271.417 272.016C271.892 271.425 272.339 270.706 272.644 269.976C272.956 269.234 273.213 268.382 273.316 267.546C273.426 266.697 273.428 265.775 273.302 264.881C273.176 263.988 272.929 263.047 272.54 262.193C272.157 261.326 271.633 260.449 271.017 259.685C270.388 258.914 269.624 258.185 268.781 257.576C267.93 256.98 266.95 256.444 265.934 256.068C264.912 255.704 263.791 255.435 262.653 255.35C261.522 255.253 260.323 255.314 259.159 255.524C258.001 255.752 256.813 256.128 255.706 256.659C254.611 257.197 253.518 257.914 252.557 258.749C251.608 259.591 250.707 260.588 249.989 261.698C249.259 262.802 248.647 264.049 248.219 265.345C247.791 266.642 247.527 268.057 247.443 269.47C247.371 270.891 247.483 272.36 247.795 273.789C248.107 275.218 248.624 276.658 249.322 278C250.021 279.343 250.925 280.632 251.974 281.771C253.036 282.917 254.267 283.958 255.63 284.81C256.993 285.662 258.501 286.363 260.077 286.843C261.654 287.322 263.351 287.605 265.041 287.658C266.737 287.698 268.489 287.541 270.183 287.126C271.877 286.712 273.57 286.086 275.146 285.22C276.723 284.354 278.222 283.269 279.558 282C280.882 280.725 282.082 279.255 283.056 277.632C284.029 276.009 284.82 274.241 285.357 272.371C285.888 270.513 286.191 268.535 286.218 266.557C286.246 264.579 286.025 262.55 285.514 260.578C285.016 258.613 284.249 256.667 283.229 254.863C282.208 253.058 280.929 251.344 279.447 249.829C277.965 248.315 276.249 246.968 274.373 245.861C272.49 244.766 270.449 243.879 268.311 243.297C267.573 243.1 266.439 242.823 265.687 242.684" stroke="#8153D1" stroke-width="5.97015" stroke-miterlimit="10" stroke-linecap="round" stroke-linejoin="round"/>
<path d="M230.13 245.455C230.13 245.455 230.608 245.563 230.659 245.558C230.71 245.552 231.129 245.434 231.208 245.378C231.286 245.323 231.581 245.041 231.66 244.922C231.74 244.802 231.89 244.428 231.907 244.242C231.937 244.064 231.934 243.641 231.875 243.415C231.823 243.177 231.672 242.789 231.524 242.549C231.376 242.308 231.077 241.956 230.826 241.758C230.562 241.553 230.145 241.3 229.796 241.163C229.447 241.027 228.944 240.906 228.515 240.89C228.093 240.86 227.535 240.905 227.071 241.016C226.607 241.126 226.058 241.337 225.61 241.602C225.162 241.867 224.666 242.252 224.272 242.659C223.891 243.073 223.487 243.621 223.212 244.171C222.936 244.722 222.696 245.389 222.578 246.039C222.461 246.69 222.404 247.438 222.464 248.15C222.524 248.862 222.698 249.635 222.97 250.346C223.241 251.056 223.64 251.802 224.118 252.428C224.602 253.074 225.221 253.71 225.888 254.225C226.567 254.747 227.369 255.221 228.201 255.548C229.032 255.875 229.98 256.134 230.913 256.239C231.845 256.345 232.87 256.337 233.847 256.174C234.824 256.012 235.856 255.716 236.795 255.29C237.74 254.851 238.695 254.272 239.519 253.574C240.342 252.876 241.131 252.03 241.787 251.098C242.43 250.159 242.993 249.096 243.372 247.984C243.763 246.879 244.029 245.643 244.109 244.422C244.189 243.2 244.117 241.899 243.871 240.65C243.626 239.402 243.201 238.124 242.608 236.951C242.014 235.778 241.241 234.607 240.33 233.605C239.413 232.585 238.34 231.644 237.141 230.879C235.942 230.114 234.619 229.461 233.227 229.032C231.829 228.582 230.336 228.31 228.826 228.255C227.316 228.2 225.744 228.323 224.231 228.672C222.718 229.02 221.193 229.573 219.773 230.327C218.353 231.082 216.985 232.042 215.787 233.173C214.588 234.304 213.487 235.616 212.601 237.075C211.709 238.514 210.986 240.123 210.485 241.802C209.984 243.481 209.692 245.254 209.65 247.047C209.608 248.839 209.795 250.688 210.239 252.478C210.683 254.269 211.365 256.04 212.274 257.688C213.183 259.336 214.337 260.92 215.681 262.296C217.031 263.692 218.578 264.933 220.289 265.953C221.988 266.967 223.858 267.78 225.817 268.332C227.777 268.884 229.831 269.195 231.912 269.212C233.993 269.229 236.112 268.991 238.162 268.457C240.211 267.923 242.241 267.119 244.123 266.043C246.006 264.966 247.799 263.632 249.372 262.068C249.93 261.505 250.729 260.762 251.25 260.146" stroke="#8153D1" stroke-width="5.97015" stroke-miterlimit="10" stroke-linecap="round" stroke-linejoin="round"/>
<path d="M266.626 227.887C266.626 227.887 266.297 228.263 266.277 228.301C266.257 228.339 266.157 228.772 266.155 228.868C266.153 228.964 266.252 229.357 266.326 229.493C266.387 229.623 266.642 229.936 266.786 230.061C266.937 230.174 267.298 230.381 267.52 230.45C267.743 230.52 268.177 230.587 268.459 230.575C268.741 230.562 269.191 230.477 269.495 230.362C269.798 230.248 270.233 230.008 270.52 229.772C270.808 229.535 271.169 229.16 271.408 228.8C271.647 228.441 271.889 227.953 272.022 227.489C272.148 227.037 272.251 226.444 272.244 225.938C272.244 225.419 272.156 224.79 271.99 224.248C271.823 223.706 271.549 223.091 271.209 222.571C270.869 222.05 270.408 221.514 269.913 221.073C269.41 220.645 268.78 220.214 268.14 219.924C267.5 219.633 266.738 219.391 265.991 219.271C265.245 219.151 264.4 219.124 263.604 219.221C262.807 219.317 261.95 219.528 261.161 219.855C260.372 220.182 259.561 220.643 258.863 221.197C258.164 221.75 257.469 222.451 256.907 223.206C256.344 223.961 255.849 224.865 255.495 225.779C255.146 226.712 254.891 227.744 254.796 228.779C254.701 229.814 254.726 230.929 254.925 231.991C255.118 233.065 255.456 234.168 255.938 235.185C256.433 236.208 257.075 237.229 257.835 238.118C258.608 239.013 259.523 239.855 260.558 240.532C261.572 241.216 262.737 241.801 263.944 242.213C265.151 242.626 266.471 242.888 267.788 242.97C269.105 243.053 270.484 242.957 271.836 242.669C273.168 242.387 274.531 241.926 275.789 241.264C277.053 240.621 278.276 239.779 279.35 238.793C280.424 237.806 281.424 236.651 282.229 235.377C283.034 234.102 283.708 232.677 284.173 231.19C284.637 229.702 284.918 228.101 284.969 226.508C285.026 224.902 284.879 223.252 284.501 221.642C284.123 220.032 283.533 218.424 282.723 216.925C281.913 215.427 280.89 213.994 279.697 212.729C278.491 211.459 277.103 210.318 275.568 209.391C274.034 208.465 272.348 207.701 270.58 207.186C268.812 206.67 266.943 206.376 265.048 206.344C263.153 206.312 261.227 206.523 259.346 206.984C257.465 207.446 255.603 208.177 253.877 209.141C252.151 210.106 250.502 211.322 249.053 212.742C247.604 214.161 246.304 215.789 245.243 217.577C244.183 219.364 243.342 221.317 242.775 223.365C242.208 225.414 241.895 227.565 241.875 229.742C241.863 231.906 242.13 234.122 242.695 236.268C242.889 237.002 243.172 237.995 243.425 238.712" stroke="#8153D1" stroke-width="5.97015" stroke-miterlimit="10" stroke-linecap="round" stroke-linejoin="round"/>
<rect opacity="0.35" x="389.284" y="64.5509" width="19.7871" height="9.83151" rx="1.61692" stroke="white" stroke-width="0.746269"/>
<path opacity="0.4" d="M410.378 67.6001V71.3334C411.129 71.0172 411.617 70.2817 411.617 69.4668C411.617 68.6518 411.129 67.9163 410.378 67.6001" fill="white"/>
<rect x="390.777" y="66.0444" width="16.8" height="6.84445" rx="0.995025" fill="white"/>
<path fill-rule="evenodd" clip-rule="evenodd" d="M377.09 66.3075C379.166 66.3076 381.163 67.1047 382.668 68.5342C382.781 68.6446 382.962 68.6432 383.074 68.5311L384.157 67.4388C384.214 67.3819 384.245 67.3049 384.245 67.2248C384.244 67.1447 384.212 67.068 384.155 67.0119C380.205 63.2298 373.974 63.2298 370.024 67.0119C369.967 67.068 369.934 67.1446 369.934 67.2247C369.933 67.3049 369.965 67.3819 370.021 67.4388L371.105 68.5311C371.216 68.6434 371.397 68.6447 371.511 68.5342C373.016 67.1046 375.013 66.3075 377.09 66.3075ZM377.09 69.8612C378.23 69.8611 379.331 70.2848 380.176 71.0499C380.291 71.1585 380.471 71.1562 380.582 71.0446L381.664 69.9523C381.721 69.895 381.753 69.8173 381.752 69.7365C381.751 69.6558 381.718 69.5787 381.66 69.5226C379.085 67.1291 375.097 67.1291 372.521 69.5226C372.463 69.5787 372.43 69.6558 372.429 69.7366C372.429 69.8174 372.46 69.8951 372.517 69.9523L373.599 71.0446C373.711 71.1562 373.891 71.1585 374.005 71.0499C374.85 70.2853 375.949 69.8617 377.09 69.8612ZM379.257 72.2523C379.259 72.3333 379.227 72.4114 379.169 72.4681L377.297 74.3553C377.242 74.4108 377.168 74.442 377.09 74.442C377.011 74.442 376.937 74.4108 376.882 74.3553L375.01 72.4681C374.952 72.4113 374.92 72.3332 374.922 72.2522C374.924 72.1712 374.959 72.0945 375.019 72.0403C376.214 71.0301 377.965 71.0301 379.16 72.0403C379.22 72.0946 379.255 72.1713 379.257 72.2523Z" fill="white"/>
<path fill-rule="evenodd" clip-rule="evenodd" d="M364.334 64.4888H363.4C362.885 64.4888 362.467 64.9066 362.467 65.4221V73.511C362.467 74.0265 362.885 74.4443 363.4 74.4443H364.334C364.849 74.4443 365.267 74.0265 365.267 73.511V65.4221C365.267 64.9066 364.849 64.4888 364.334 64.4888ZM359.045 66.6665H359.978C360.494 66.6665 360.912 67.0844 360.912 67.5999V73.511C360.912 74.0265 360.494 74.4443 359.978 74.4443H359.045C358.529 74.4443 358.112 74.0265 358.112 73.511V67.5999C358.112 67.0844 358.529 66.6665 359.045 66.6665ZM355.623 68.8443H354.689C354.174 68.8443 353.756 69.2622 353.756 69.7776V73.511C353.756 74.0264 354.174 74.4443 354.689 74.4443H355.623C356.138 74.4443 356.556 74.0264 356.556 73.511V69.7776C356.556 69.2622 356.138 68.8443 355.623 68.8443ZM351.267 70.7111H350.334C349.818 70.7111 349.4 71.1289 349.4 71.6444V73.5111C349.4 74.0265 349.818 74.4444 350.334 74.4444H351.267C351.783 74.4444 352.2 74.0265 352.2 73.5111V71.6444C352.2 71.1289 351.783 70.7111 351.267 70.7111Z" fill="white"/>
<path d="M111.74 71.2495H113.09V69.7355H114.156V68.5713H113.09V63.3623H111.1C110.029 64.9911 108.909 66.8058 107.886 68.5822V69.7355H111.74V71.2495ZM109.193 68.5221C109.964 67.1829 110.876 65.7236 111.685 64.4883H111.762V68.604H109.193V68.5221ZM116.408 66.1444C116.927 66.1444 117.282 65.7837 117.282 65.2972C117.282 64.8108 116.927 64.45 116.408 64.45C115.894 64.45 115.533 64.8108 115.533 65.2972C115.533 65.7837 115.894 66.1444 116.408 66.1444ZM116.408 70.1563C116.927 70.1563 117.282 69.7901 117.282 69.3091C117.282 68.8227 116.927 68.4619 116.408 68.4619C115.894 68.4619 115.533 68.8227 115.533 69.3091C115.533 69.7901 115.894 70.1563 116.408 70.1563ZM118.819 65.6962H120.141C120.141 64.8654 120.688 64.297 121.546 64.297C122.371 64.297 122.863 64.849 122.863 65.565C122.863 66.1663 122.623 66.5434 121.628 67.5491L118.895 70.2985V71.2495H124.372V70.0798H120.808V69.9869L122.503 68.3198C123.858 66.9916 124.257 66.3521 124.257 65.4339C124.257 64.1221 123.191 63.1655 121.623 63.1655C119.977 63.1655 118.819 64.2041 118.819 65.6962ZM128.619 71.4463C130.505 71.4463 131.625 69.9213 131.625 67.3086C131.625 64.6905 130.488 63.1655 128.619 63.1655C126.744 63.1655 125.607 64.6905 125.607 67.2977C125.607 69.9158 126.728 71.4463 128.619 71.4463ZM128.619 70.3039C127.619 70.3039 127.034 69.2654 127.034 67.2977C127.034 65.3464 127.63 64.3134 128.619 64.3134C129.608 64.3134 130.199 65.3409 130.199 67.2977C130.199 69.2709 129.619 70.3039 128.619 70.3039Z" fill="white"/>
</g>
</g>
<defs>
<filter id="filter0_d" x="52.0146" y="12.4778" width="435.97" height="844.179" filterUnits="userSpaceOnUse" color-interpolation-filters="sRGB">
<feFlood flood-opacity="0" result="BackgroundImageFix"/>
<feColorMatrix in="SourceAlpha" type="matrix" values="0 0 0 0 0 0 0 0 0 0 0 0 0 0 0 0 0 0 127 0"/>
<feOffset dx="20" dy="7.46269"/>
<feGaussianBlur stdDeviation="20"/>
<feColorMatrix type="matrix" values="0 0 0 0 0 0 0 0 0 0 0 0 0 0 0 0 0 0 0.45 0"/>
<feBlend mode="normal" in2="BackgroundImageFix" result="effect1_dropShadow"/>
<feBlend mode="normal" in="SourceGraphic" in2="effect1_dropShadow" result="shape"/>
</filter>
<clipPath id="clip0">
<rect width="500" height="375" fill="white"/>
</clipPath>
</defs>
</svg>
